<svg xmlns="http://www.w3.org/2000/svg" width="25.445" height="24" viewBox="0 0 25.445 24">
  <g id="Group_371" data-name="Group 371" transform="translate(-372.555 -763)">
    <path id="Path_1806" data-name="Path 1806" d="M21306.49-921.859h17.443" transform="translate(-20932.934 1688)" fill="none" stroke="#b1b1b1" stroke-linecap="round" stroke-width="2"/>
    <g id="Ellipse_894" data-name="Ellipse 894" transform="translate(391 763)" fill="#b1b1b1" stroke="#b1b1b1" stroke-width="2">
      <circle cx="3" cy="3" r="3" stroke="none"/>
      <circle cx="3" cy="3" r="2" fill="none"/>
    </g>
    <g id="Path_1810" data-name="Path 1810" transform="translate(373 772)" fill="#b1b1b1">
      <path d="M 3 5 C 1.897199988365173 5 1 4.102799892425537 1 3 C 1 1.897199988365173 1.897199988365173 1 3 1 C 4.102799892425537 1 5 1.897199988365173 5 3 C 5 4.102799892425537 4.102799892425537 5 3 5 Z" stroke="none"/>
      <path d="M 3 2 C 2.448600053787231 2 2 2.448600053787231 2 3 C 2 3.551399946212769 2.448600053787231 4 3 4 C 3.551399946212769 4 4 3.551399946212769 4 3 C 4 2.448600053787231 3.551399946212769 2 3 2 M 3 0 C 4.65684986114502 0 6 1.34315013885498 6 3 C 6 4.65684986114502 4.65684986114502 6 3 6 C 1.34315013885498 6 0 4.65684986114502 0 3 C 0 1.34315013885498 1.34315013885498 0 3 0 Z" stroke="none" fill="#b1b1b1"/>
    </g>
    <path id="Path_1807" data-name="Path 1807" d="M21306.49-921.859h18.664" transform="translate(-20928.154 1696.859)" fill="none" stroke="#b1b1b1" stroke-linecap="round" stroke-width="2"/>
    <g id="Ellipse_896" data-name="Ellipse 896" transform="translate(382 781)" fill="#b1b1b1" stroke="#b1b1b1" stroke-width="2">
      <circle cx="3" cy="3" r="3" stroke="none"/>
      <circle cx="3" cy="3" r="2" fill="none"/>
    </g>
    <path id="Path_1808" data-name="Path 1808" d="M21306.492-921.859h10.953" transform="translate(-20920.445 1705.859)" fill="none" stroke="#b1b1b1" stroke-linecap="round" stroke-width="2"/>
    <path id="Path_1809" data-name="Path 1809" d="M21306.488-921.859h9.711" transform="translate(-20932.934 1705.859)" fill="none" stroke="#b1b1b1" stroke-linecap="round" stroke-width="2"/>
  </g>
</svg>
